<svg width="482" height="484" viewBox="0 0 482 484" fill="none" xmlns="http://www.w3.org/2000/svg">
<g filter="url(#filter0_f_514_540)">
<path d="M70.5079 173.501L243.107 268.03L270.502 433.5C270.502 433.5 172 450.671 106 442.5C57.7451 436.526 22.9989 444.502 22.9989 444.502C22.9989 444.502 67.6907 330.935 74.0079 292.001C80.325 253.067 70.5079 173.501 70.5079 173.501Z" fill="#ADA389"/>
</g>
<g filter="url(#filter1_f_514_540)">
<path d="M48.0156 48.3882L440.237 23.6605L474.185 395.261C474.185 395.261 308.147 447.617 205.5 433.499C164.626 427.877 98.4314 418.95 98.4314 418.95C98.4314 418.95 73.2925 363.976 72.0987 287.346C70.9048 210.717 48.0156 48.3882 48.0156 48.3882Z" fill="url(#paint0_radial_514_540)"/>
</g>
<g filter="url(#filter2_f_514_540)">
<path d="M217.315 153.799C215.92 153.988 214.75 153.93 213.805 153.627C212.86 153.324 212.139 152.926 211.642 152.433C211.187 151.935 210.937 151.517 210.892 151.178C210.755 150.164 210.914 149.432 211.37 148.983C211.826 148.534 212.858 148.201 214.465 147.984C215.395 147.859 216.662 147.516 218.265 146.955C219.905 146.346 221.695 145.567 223.633 144.617C225.566 143.624 227.521 142.478 229.498 141.178C231.475 139.878 233.285 138.45 234.926 136.894C236.568 135.338 237.896 133.695 238.911 131.965C239.963 130.188 240.536 128.367 240.629 126.503C239.368 126.415 238.098 126.414 236.818 126.5C235.575 126.539 234.34 126.641 233.114 126.806C229.393 127.308 225.663 128.22 221.923 129.542C218.178 130.822 214.405 132.213 210.603 133.716C210.636 134.917 210.676 136.01 210.722 136.994C210.769 137.978 210.845 139.022 210.951 140.127C211.189 142.85 211.114 144.69 210.727 145.647C210.376 146.555 209.904 147.049 209.312 147.129C208.382 147.254 207.589 146.802 206.933 145.771C206.278 144.74 205.787 143.019 205.462 140.609C204.425 132.913 204.291 126.172 205.06 120.385C205.83 114.599 207.513 110.002 210.11 106.595C212.708 103.188 216.184 101.191 220.539 100.603C223.626 100.187 226.126 100.689 228.04 102.11C229.996 103.526 231.185 105.798 231.607 108.927C231.898 111.083 231.819 113.376 231.372 115.804C230.919 118.19 230.08 120.434 228.857 122.537C229.97 122.171 231.071 121.872 232.159 121.639C233.241 121.364 234.247 121.164 235.178 121.038C238.391 120.605 240.957 120.797 242.876 121.615C244.794 122.432 245.893 123.877 246.172 125.949C246.497 128.359 246.126 130.713 245.058 133.009C244.032 135.3 242.537 137.461 240.572 139.491C238.649 141.515 236.513 143.396 234.165 145.134C231.81 146.829 229.49 148.304 227.206 149.56C224.921 150.815 222.88 151.801 221.082 152.517C219.332 153.269 218.077 153.697 217.315 153.799ZM210.439 128.185C215.018 126.706 218.503 125.095 220.895 123.352C223.286 121.609 224.863 119.738 225.627 117.741C226.385 115.702 226.605 113.498 226.286 111.13C226.183 110.369 225.951 109.604 225.589 108.834C225.221 108.023 224.638 107.37 223.839 106.875C223.04 106.38 221.964 106.223 220.611 106.406C217.144 106.873 214.567 108.835 212.881 112.292C211.236 115.742 210.422 121.04 210.439 128.185ZM283.998 155.072C282.767 154.945 281.939 154.452 281.513 153.593C281.087 152.734 280.974 151.329 281.176 149.376C281.338 147.806 281.731 145.873 282.354 143.579C283.019 141.288 283.793 138.773 284.677 136.033C285.564 133.251 286.482 130.386 287.43 127.439C284.477 130.694 281.321 133.221 277.961 135.018C274.648 136.778 271.07 137.781 267.227 138.028C266.122 140.016 264.908 141.799 263.587 143.379C262.266 144.958 260.874 146.187 259.41 147.065C257.947 147.944 256.473 148.306 254.987 148.153C253.162 147.965 251.69 147.062 250.57 145.445C249.492 143.833 249.1 141.605 249.394 138.761C249.596 136.809 250.03 135.095 250.697 133.62C251.368 132.102 252.057 131.036 252.764 130.423C252.332 128.791 252.221 126.957 252.431 124.92C252.69 122.416 253.49 120.268 254.834 118.476C256.181 116.642 257.864 115.293 259.884 114.429C261.908 113.523 264.023 113.184 266.23 113.412C268.012 113.596 269.518 114.588 270.748 116.387C271.978 118.187 272.433 120.636 272.113 123.734C271.815 126.62 270.975 129.772 269.593 133.189C272.019 132.539 274.494 131.422 277.016 129.838C279.581 128.258 282.099 126.309 284.568 123.991C287.038 121.672 289.324 119.055 291.427 116.141C291.972 115.426 292.67 115.111 293.519 115.199C294.282 115.278 294.853 115.573 295.229 116.083C295.652 116.556 295.824 117.174 295.745 117.938C295.723 118.15 295.521 118.859 295.14 120.063C294.8 121.272 294.341 122.812 293.762 124.682C293.225 126.557 292.627 128.618 291.966 130.866C291.305 133.114 290.641 135.384 289.976 137.674C289.353 139.969 288.811 142.101 288.351 144.069C289.52 142.302 290.834 140.379 292.292 138.299C293.751 136.219 295.226 134.184 296.718 132.193C298.258 130.165 299.713 128.32 301.086 126.661C302.5 125.005 303.729 123.695 304.773 122.73C305.863 121.728 306.684 121.255 307.235 121.312C308.254 121.417 309.11 121.848 309.804 122.606C310.498 123.364 310.808 124.104 310.733 124.826C310.632 125.802 310.373 127.276 309.955 129.249C309.541 131.179 309.059 133.36 308.507 135.791C307.956 138.222 307.405 140.653 306.854 143.084C306.303 145.515 305.818 147.716 305.4 149.689C304.982 151.662 304.722 153.137 304.622 154.113C304.556 154.749 304.221 155.294 303.617 155.746C303.012 156.199 302.371 156.39 301.692 156.32C301.225 156.271 300.837 156.081 300.528 155.749C300.257 155.464 300.085 154.846 300.012 153.894C299.938 152.943 300.002 151.491 300.204 149.539C300.401 147.629 300.679 145.556 301.039 143.32C301.403 141.041 301.807 138.788 302.251 136.561C302.743 134.295 303.231 132.265 303.716 130.471C302.574 131.983 301.25 133.798 299.744 135.916C298.281 138.038 296.748 140.218 295.145 142.454C293.541 144.691 291.995 146.783 290.508 148.731C289.02 150.679 287.701 152.237 286.551 153.406C285.401 154.574 284.55 155.129 283.998 155.072ZM263.885 133.63C264.561 132.07 265.142 130.392 265.627 128.598C266.16 126.766 266.522 124.916 266.715 123.048C266.829 121.945 266.709 121.032 266.354 120.309C266 119.586 265.462 119.187 264.741 119.113C263.637 118.999 262.522 119.206 261.395 119.733C260.273 120.217 259.294 120.974 258.459 122.003C257.666 123.036 257.19 124.317 257.033 125.845C256.835 127.755 257.388 129.463 258.691 130.97C260.041 132.439 261.772 133.326 263.885 133.63ZM261.713 137.845C258.84 137.42 256.594 136.33 254.973 134.576C254.831 135.119 254.692 135.64 254.554 136.141C254.421 136.599 254.331 137.062 254.282 137.528C254.147 138.844 254.251 139.906 254.597 140.714C254.989 141.483 255.652 141.916 256.586 142.013C257.35 142.091 258.179 141.748 259.073 140.983C259.967 140.217 260.847 139.171 261.713 137.845Z" fill="#1D1D1D"/>
<path d="M184.372 226.484C184.396 227.167 184.173 227.746 183.705 228.22C183.236 228.695 182.663 228.965 181.983 229.031C181.219 229.105 180.557 228.912 179.998 228.452C179.439 227.992 179.108 227.231 179.005 226.169C178.736 223.409 178.573 220.403 178.514 217.15C178.452 213.856 178.457 210.597 178.53 207.375C178.598 204.111 178.692 201.101 178.81 198.346C177.602 200.478 176.288 202.835 174.867 205.416C173.488 207.993 172.065 210.554 170.597 213.097C169.13 215.64 167.686 217.988 166.266 220.14C164.842 222.251 163.532 223.985 162.335 225.345C161.134 226.662 160.109 227.361 159.259 227.444C157.688 227.597 156.269 227.113 155.003 225.993C153.733 224.83 153.005 223.293 152.819 221.382C152.745 220.618 152.729 219.569 152.771 218.236C152.809 216.861 152.862 215.419 152.93 213.912C152.998 212.405 153.055 211.007 153.101 209.716C153.143 208.383 153.133 207.398 153.071 206.761C153.013 206.167 152.9 205.663 152.731 205.251C152.601 204.792 152.366 204.579 152.026 204.612C151.517 204.662 150.872 205.303 150.091 206.536C149.307 207.727 148.447 209.247 147.512 211.095C146.619 212.939 145.695 214.894 144.738 216.959C143.823 219.019 142.962 220.968 142.155 222.804C141.343 224.597 140.645 226.015 140.06 227.058C139.599 228.046 139.155 228.775 138.729 229.245C138.303 229.715 137.751 229.983 137.071 230.049C136.264 230.127 135.48 229.775 134.718 228.992C133.998 228.204 133.579 227.195 133.459 225.963C133.389 225.241 133.407 224.103 133.514 222.55C133.616 220.954 133.767 219.203 133.968 217.297C134.211 215.388 134.437 213.522 134.646 211.702C134.894 209.834 135.104 208.249 135.278 206.946C135.477 205.469 135.807 204.451 136.267 203.892C136.727 203.333 137.254 203.025 137.849 202.967C138.656 202.889 139.322 203.124 139.847 203.673C140.41 204.176 140.749 205.022 140.865 206.211C140.885 206.423 140.813 207.009 140.649 207.968C140.481 208.884 140.27 210.019 140.016 211.373C139.8 212.68 139.547 214.055 139.259 215.497C139.013 216.936 138.82 218.262 138.681 219.476C139.462 217.814 140.274 216.02 141.116 214.095C142 212.166 142.887 210.258 143.775 208.371C144.659 206.442 145.56 204.683 146.478 203.093C147.391 201.462 148.314 200.15 149.246 199.159C150.179 198.169 151.112 197.628 152.046 197.537C153.151 197.43 154.203 197.671 155.203 198.259C156.246 198.844 157.12 199.681 157.826 200.77C158.532 201.858 158.953 203.104 159.089 204.505C159.184 205.482 159.148 206.878 158.982 208.695C158.811 210.469 158.634 212.394 158.449 214.469C158.308 216.541 158.283 218.494 158.375 220.328C158.417 220.753 158.565 220.953 158.819 220.928C159.032 220.907 159.272 220.734 159.54 220.408C160.64 218.929 161.84 217.162 163.141 215.107C164.437 213.009 165.745 210.803 167.063 208.489C168.424 206.17 169.768 203.896 171.095 201.667C172.418 199.395 173.655 197.346 174.806 195.52C175.996 193.646 177.051 192.151 177.971 191.033C178.934 189.91 179.712 189.32 180.307 189.263C181.581 189.139 182.593 189.405 183.342 190.061C184.092 190.717 184.549 191.894 184.714 193.593C184.846 194.952 184.911 196.724 184.909 198.911C184.95 201.093 184.945 203.473 184.895 206.05C184.888 208.622 184.84 211.22 184.752 213.844C184.702 216.421 184.636 218.828 184.553 221.065C184.466 223.26 184.406 225.066 184.372 226.484ZM200.073 229.505C198.452 229.49 197.115 228.73 196.062 227.227C195.053 225.681 194.56 223.693 194.583 221.261C194.604 219 195.18 216.765 196.31 214.557C197.483 212.349 199.017 210.23 200.914 208.2C202.81 206.17 204.876 204.312 207.111 202.626C209.346 200.898 211.579 199.404 213.809 198.145C216.083 196.886 218.161 195.903 220.045 195.196C221.929 194.488 223.426 194.139 224.535 194.15C225.133 194.155 225.622 194.288 226.004 194.548C226.386 194.765 226.574 195.172 226.568 195.769C226.565 196.153 226.412 196.514 226.11 196.853C226.153 196.853 226.195 196.854 226.238 196.854C227.177 196.863 227.641 197.422 227.63 198.531C227.627 198.915 227.47 199.703 227.16 200.895C226.85 202.044 226.495 203.491 226.095 205.237C225.694 206.983 225.335 208.921 225.016 211.051C224.698 213.139 224.528 215.271 224.508 217.447C224.491 219.281 225.186 220.205 226.594 220.218C228.172 220.233 229.776 219.886 231.404 219.176C233.032 218.466 234.619 217.606 236.164 216.596C237.71 215.544 239.128 214.512 240.418 213.5C241.708 212.446 242.804 211.56 243.707 210.843C244.61 210.126 245.253 209.77 245.637 209.773C245.978 209.777 246.276 209.886 246.53 210.102C246.784 210.318 246.909 210.66 246.904 211.129C246.9 211.556 246.466 212.32 245.603 213.421C244.739 214.522 243.596 215.77 242.175 217.165C240.754 218.56 239.163 219.91 237.401 221.216C235.639 222.522 233.837 223.593 231.994 224.429C230.152 225.266 228.398 225.676 226.735 225.66C225.455 225.648 224.285 225.253 223.226 224.475C222.209 223.655 221.39 222.281 220.768 220.356C220.189 218.43 219.915 215.782 219.947 212.411L219.962 210.812C217.839 214.248 215.612 217.384 213.281 220.221C210.993 223.058 208.71 225.319 206.433 227.005C204.198 228.69 202.078 229.524 200.073 229.505ZM223.276 198.746C223.062 198.83 222.762 198.955 222.376 199.122C220.405 199.999 218.347 201.089 216.201 202.392C214.098 203.695 212.036 205.147 210.016 206.75C208.038 208.352 206.252 210.021 204.657 211.755C203.061 213.49 201.786 215.248 200.831 217.032C199.875 218.815 199.389 220.559 199.373 222.266C199.368 222.821 199.471 223.248 199.681 223.549C199.934 223.85 200.36 224.003 200.957 224.009C201.81 224.017 202.925 223.494 204.3 222.44C205.676 221.344 207.183 219.908 208.821 218.131C210.501 216.355 212.184 214.386 213.869 212.226C215.553 210.066 217.152 207.884 218.666 205.679C220.223 203.475 221.565 201.44 222.692 199.573C222.866 199.276 223.06 199 223.276 198.746ZM239.729 207.714C238.59 207.523 238.127 206.73 238.343 205.336C238.417 205 238.688 204.618 239.156 204.19C239.628 203.72 240.142 203.489 240.698 203.498C242.027 203.492 243.659 203.451 245.595 203.373C247.577 203.257 249.754 203.117 252.126 202.951C252.744 200.909 253.457 198.768 254.264 196.529C255.072 194.29 255.938 192.121 256.861 190.021C257.788 187.879 258.738 185.953 259.711 184.244C260.684 182.535 261.664 181.211 262.65 180.275C263.161 179.851 263.615 179.572 264.014 179.437C264.416 179.26 264.765 179.185 265.063 179.213C265.657 179.268 266.101 179.567 266.394 180.108C266.729 180.653 266.867 181.244 266.808 181.882C266.776 182.222 266.681 182.556 266.522 182.884C265.451 185.184 264.266 188.03 262.965 191.423C261.665 194.817 260.271 198.522 258.784 202.541C262.752 202.266 266.724 201.949 270.699 201.59C274.675 201.23 278.092 200.883 280.951 200.549C281.79 200.284 282.4 200.404 282.782 200.911C283.205 201.422 283.396 201.911 283.352 202.378C283.297 202.973 283.086 203.403 282.718 203.669C282.393 203.939 282.051 204.164 281.692 204.345L281.622 204.403C280.741 204.664 279.429 204.949 277.686 205.259C275.947 205.526 273.95 205.812 271.693 206.117C269.44 206.379 267.039 206.628 264.489 206.862C261.982 207.101 259.5 207.299 257.043 207.457C255.718 211.105 254.363 214.857 252.977 218.713C251.637 222.531 250.303 226.285 248.975 229.976C248.408 231.466 247.831 232.376 247.243 232.707C246.694 233.085 246.122 233.246 245.527 233.191C244.848 233.128 244.276 232.818 243.814 232.261C243.394 231.707 243.427 230.661 243.913 229.12L250.581 207.821C247.997 207.967 245.719 208.034 243.749 208.023C241.822 208.015 240.482 207.912 239.729 207.714ZM283.72 234.643C281.661 234.283 279.955 233.507 278.605 232.318C277.303 231.093 276.385 229.655 275.852 228.002C275.319 226.349 275.192 224.724 275.472 223.127C276.061 219.765 277.187 216.8 278.85 214.233C280.52 211.623 282.425 209.401 284.566 207.567C286.756 205.698 288.929 204.173 291.085 202.992C293.284 201.817 295.226 200.988 296.914 200.504C298.651 199.986 299.856 199.785 300.528 199.903C301.873 200.139 302.427 200.929 302.192 202.274C302.081 202.904 301.532 203.566 300.544 204.259C299.564 204.91 298.327 205.668 296.832 206.533C295.338 207.397 293.734 208.394 292.02 209.523C290.313 210.61 288.658 211.901 287.053 213.396C285.456 214.849 284.053 216.552 282.844 218.506C281.643 220.418 280.825 222.614 280.39 225.093C279.948 227.615 280.757 229.056 282.816 229.417C284.708 229.748 286.703 229.73 288.804 229.362C290.946 229.001 293.083 228.422 295.216 227.626C297.397 226.796 299.502 225.908 301.53 224.964C303.558 224.02 305.407 223.109 307.076 222.232C308.754 221.313 310.159 220.585 311.293 220.047C312.427 219.51 313.204 219.278 313.624 219.351C314.464 219.498 314.804 220.034 314.642 220.959C314.517 221.673 313.868 222.534 312.695 223.542C311.522 224.549 309.995 225.603 308.113 226.702C306.23 227.802 304.156 228.889 301.888 229.965C299.628 230.998 297.365 231.923 295.099 232.739C292.841 233.513 290.704 234.091 288.688 234.474C286.721 234.823 285.065 234.879 283.72 234.643ZM310.229 242.051C309.332 241.776 308.719 241.298 308.392 240.618C308.053 239.978 308.189 238.659 308.802 236.66C309.364 234.824 310.422 232.538 311.974 229.8C313.539 227.022 315.429 223.987 317.642 220.693C319.856 217.4 322.25 214.028 324.825 210.577C327.411 207.086 330.035 203.695 332.694 200.404C335.406 197.085 337.958 194.074 340.348 191.37C341.228 190.39 342.023 189.763 342.731 189.49C343.44 189.216 344.182 189.198 344.957 189.435C345.487 189.598 345.886 189.898 346.153 190.337C346.473 190.748 346.527 191.3 346.315 191.993C346.24 192.238 345.731 192.952 344.788 194.136C343.886 195.332 342.649 196.894 341.077 198.822C339.545 200.763 337.83 202.937 335.932 205.346C334.034 207.754 332.072 210.299 330.046 212.98C328.019 215.662 326.048 218.382 324.132 221.142C322.228 223.861 320.504 226.501 318.961 229.063C317.417 231.624 316.186 233.969 315.266 236.097C316.608 235.214 318.192 234.048 320.019 232.6C321.846 231.151 323.798 229.585 325.876 227.901C327.954 226.217 330.046 224.56 332.152 222.93C334.258 221.299 336.287 219.846 338.24 218.57C340.193 217.294 341.937 216.333 343.474 215.688C345.063 215.015 346.327 214.822 347.265 215.11C348.816 215.585 349.91 216.455 350.548 217.722C351.24 218.96 351.254 220.66 350.592 222.822C350.217 224.046 349.522 225.44 348.508 227.003C347.534 228.579 346.454 230.212 345.267 231.901C344.08 233.59 342.98 235.216 341.965 236.78C340.992 238.356 340.317 239.755 339.942 240.979C339.43 242.652 339.806 243.682 341.071 244.069C343.029 244.669 345.118 244.841 347.339 244.584C349.6 244.34 351.822 243.86 354.005 243.145C356.2 242.39 358.252 241.591 360.161 240.748C362.083 239.864 363.718 239.115 365.066 238.502C366.521 237.832 367.636 237.616 368.411 237.853C369.39 238.153 369.723 238.813 369.411 239.833C369.323 240.119 369.162 240.426 368.927 240.756C368.692 241.085 368.222 241.455 367.517 241.863C366.639 242.398 365.407 243.069 363.821 243.877C362.275 244.698 360.501 245.537 358.498 246.396C356.535 247.267 354.454 248.013 352.256 248.634C350.099 249.267 347.943 249.678 345.788 249.865C343.686 250.025 341.738 249.83 339.943 249.28C337.495 248.53 335.811 247.255 334.89 245.456C334.021 243.628 333.969 241.47 334.731 238.981C335.206 237.431 336.026 235.629 337.19 233.576C338.355 231.523 339.679 229.386 341.163 227.163C342.701 224.912 344.219 222.722 345.719 220.593C344.139 221.091 342.299 222 340.198 223.32C338.152 224.611 335.948 226.123 333.588 227.854C331.241 229.545 328.881 231.276 326.508 233.048C324.177 234.833 321.936 236.467 319.786 237.95C317.689 239.405 315.806 240.524 314.138 241.307C312.471 242.09 311.167 242.338 310.229 242.051Z" fill="url(#paint1_linear_514_540)"/>
<path d="M387.799 240.536C387.415 240.536 387.073 240.344 386.775 239.96C386.519 239.534 386.391 238.979 386.391 238.296C386.391 237.358 386.561 235.886 386.903 233.88C387.287 231.832 387.777 229.464 388.375 226.776C389.015 224.046 389.74 221.208 390.551 218.264C391.404 215.32 392.3 212.44 393.239 209.624C394.177 206.766 395.116 204.227 396.055 202.008C396.695 200.515 397.484 199.768 398.423 199.768C399.404 199.768 400.3 200.238 401.111 201.176C401.921 202.115 402.327 203.267 402.327 204.632C402.327 205.144 402.071 206.104 401.559 207.512C401.089 208.92 400.449 210.627 399.639 212.632C398.871 214.638 398.017 216.792 397.079 219.096C396.14 221.4 395.18 223.747 394.199 226.136C393.26 228.483 392.385 230.702 391.575 232.792C390.764 234.883 390.124 236.696 389.655 238.232C389.356 239.171 389.079 239.79 388.823 240.088C388.567 240.387 388.225 240.536 387.799 240.536ZM384.023 259.608C383.383 259.608 382.721 259.246 382.039 258.52C381.356 257.795 381.015 256.323 381.015 254.104C381.015 252.867 381.42 251.95 382.231 251.352C383.041 250.712 384.087 250.392 385.367 250.392C387.543 250.392 388.631 251.523 388.631 253.784C388.631 254.851 388.375 255.811 387.863 256.664C387.351 257.56 386.732 258.264 386.007 258.776C385.324 259.331 384.663 259.608 384.023 259.608Z" fill="black"/>
</g>
<defs>
<filter id="filter0_f_514_540" x="0.0980473" y="150.601" width="293.304" height="317.004" filterUnits="userSpaceOnUse" color-interpolation-filters="sRGB">
<feFlood flood-opacity="0" result="BackgroundImageFix"/>
<feBlend mode="normal" in="SourceGraphic" in2="BackgroundImageFix" result="shape"/>
<feGaussianBlur stdDeviation="11.45" result="effect1_foregroundBlur_514_540"/>
</filter>
<filter id="filter1_f_514_540" x="46.0156" y="21.6606" width="430.17" height="416.255" filterUnits="userSpaceOnUse" color-interpolation-filters="sRGB">
<feFlood flood-opacity="0" result="BackgroundImageFix"/>
<feBlend mode="normal" in="SourceGraphic" in2="BackgroundImageFix" result="shape"/>
<feGaussianBlur stdDeviation="1" result="effect1_foregroundBlur_514_540"/>
</filter>
<filter id="filter2_f_514_540" x="118.449" y="57.103" width="284.877" height="281.023" filterUnits="userSpaceOnUse" color-interpolation-filters="sRGB">
<feFlood flood-opacity="0" result="BackgroundImageFix"/>
<feBlend mode="normal" in="SourceGraphic" in2="BackgroundImageFix" result="shape"/>
<feGaussianBlur stdDeviation="0.5" result="effect1_foregroundBlur_514_540"/>
</filter>
<radialGradient id="paint0_radial_514_540" cx="0" cy="0" r="1" gradientUnits="userSpaceOnUse" gradientTransform="translate(122 420.999) rotate(7.83046) scale(256.895 253.541)">
<stop stop-color="#FDFCCB"/>
<stop offset="1" stop-color="#EFE58D"/>
</radialGradient>
<linearGradient id="paint1_linear_514_540" x1="289.5" y1="111" x2="247.77" y2="309.019" gradientUnits="userSpaceOnUse">
<stop/>
<stop offset="1" stop-color="#666666"/>
</linearGradient>
</defs>
</svg>
